<svg xmlns="http://www.w3.org/2000/svg" width="600" height="600" viewBox="0 0 600 600">
<g>
<path d="M 230.94 510.54 C230.36,510.89 228.81,511.31 227.49,511.45 C225.49,511.67 224.89,511.05 223.80,507.61 C222.63,503.91 222.14,503.47 218.92,503.20 L 215.34 502.90 L 215.64 497.91 C215.86,494.19 215.63,493.11 214.72,493.65 C213.76,494.23 213.76,494.06 214.71,492.89 C215.69,491.67 215.53,491.11 213.87,489.94 C212.73,489.15 211.17,488.05 210.39,487.50 C208.96,486.49 207.79,482.93 207.84,479.77 C207.86,478.82 207.51,477.82 207.07,477.54 C206.63,477.27 206.39,475.96 206.54,474.63 C206.75,472.67 206.04,471.87 202.82,470.42 L 198.84 468.63 L 199.20 462.42 L 199.56 456.21 L 196.32 456.61 C193.28,456.98 193.01,456.75 191.85,452.90 C190.59,448.69 187.51,446.42 185.37,448.14 C183.88,449.34 182.70,446.36 183.85,444.31 C184.31,443.47 184.30,440.94 183.81,438.65 C183.32,436.37 182.86,433.96 182.79,433.31 C182.72,432.65 182.40,432.14 182.08,432.17 C181.76,432.21 180.26,432.18 178.75,432.12 C176.20,432.01 176.00,431.69 176.00,427.72 C176.00,425.34 175.26,422.39 174.33,421.06 C173.41,419.74 173.18,418.99 173.82,419.39 C174.57,419.85 174.77,419.57 174.40,418.59 C174.08,417.76 172.96,416.80 171.91,416.47 C170.86,416.14 170.00,415.42 170.00,414.87 C170.00,414.33 169.49,414.20 168.87,414.58 C168.18,415.01 167.93,414.74 168.24,413.89 C168.51,413.13 168.27,411.60 167.70,410.51 C166.31,407.83 165.96,404.00 167.10,404.00 C167.60,404.00 167.45,403.08 166.76,401.96 C166.04,400.79 164.78,400.10 163.82,400.35 C161.41,400.96 157.78,397.28 158.51,394.97 C158.95,393.57 158.19,392.49 155.57,390.79 C152.48,388.80 152.02,387.98 152.01,384.47 C152.00,379.82 149.73,376.00 146.98,376.00 C145.60,376.00 144.78,374.88 143.99,371.94 C143.38,369.71 142.97,367.13 143.06,366.19 C143.44,362.37 142.89,360.91 140.75,360.09 C137.38,358.80 134.80,355.46 135.14,352.83 C135.30,351.55 135.07,349.91 134.62,349.18 C134.17,348.46 134.05,347.61 134.36,347.30 C135.61,346.05 132.85,342.91 131.02,343.49 C129.18,344.08 127.71,341.75 127.56,338.01 C127.53,337.16 126.21,336.30 124.50,336.01 C122.13,335.60 121.43,334.91 121.18,332.75 C121.01,331.24 120.50,330.00 120.06,330.00 C119.62,330.00 119.37,328.02 119.51,325.60 C119.76,321.41 119.60,321.12 116.10,319.54 C113.69,318.46 112.33,317.12 112.16,315.69 C112.01,314.49 111.81,312.79 111.70,311.93 C111.59,311.06 110.69,309.54 109.69,308.55 C108.70,307.55 108.13,306.10 108.43,305.32 C108.73,304.54 108.62,304.12 108.18,304.39 C107.09,305.06 103.65,300.32 103.47,297.91 C103.33,296.00 104.19,295.96 138.12,296.03 L 172.91 296.10 L 172.05 298.37 C171.21,300.58 172.75,302.57 175.46,302.78 C176.98,302.90 177.84,306.33 176.83,308.27 C175.68,310.48 176.55,312.00 178.95,312.00 C181.02,312.00 182.48,314.63 183.39,320.00 C183.92,323.08 185.16,326.00 185.95,326.00 C186.39,326.00 188.49,328.12 190.61,330.70 C192.73,333.29 193.90,335.05 193.20,334.62 C192.50,334.19 192.82,335.31 193.91,337.10 C195.00,338.89 195.63,340.80 195.29,341.33 C194.96,341.87 195.21,341.99 195.85,341.60 C196.54,341.17 197.00,341.53 197.00,342.50 C197.00,343.47 197.46,343.83 198.15,343.40 C198.84,342.98 199.04,343.13 198.64,343.78 C198.27,344.37 198.42,345.14 198.96,345.48 C199.51,345.82 199.91,348.34 199.85,351.07 C199.73,356.37 201.52,359.47 205.58,361.03 C207.20,361.65 207.70,362.78 207.83,366.13 C208.05,371.68 208.72,373.68 210.59,374.40 C211.44,374.72 211.84,374.55 211.50,374.00 C211.16,373.46 211.55,373.27 212.37,373.59 C213.18,373.90 214.10,374.82 214.41,375.63 C214.72,376.44 214.59,376.87 214.12,376.57 C213.65,376.28 213.96,377.59 214.82,379.47 C215.67,381.35 216.68,382.70 217.07,382.46 C217.46,382.22 218.35,382.71 219.05,383.56 C219.75,384.40 220.88,384.88 221.56,384.61 C222.25,384.35 223.64,384.77 224.65,385.54 C226.45,386.90 226.45,386.94 224.64,386.97 C223.07,386.99 222.88,387.52 223.42,390.25 C223.77,392.04 224.04,394.68 224.02,396.12 C224.00,397.56 224.67,399.31 225.49,399.99 C226.32,400.68 227.00,400.83 227.00,400.33 C227.00,399.82 229.66,399.58 232.92,399.78 C238.72,400.15 238.84,400.11 238.57,397.68 C238.29,395.11 240.91,392.00 243.37,392.00 C244.81,392.00 249.35,381.37 248.50,380.00 C247.74,378.77 249.07,375.93 250.10,376.56 C250.60,376.87 251.00,376.61 251.00,376.00 C251.00,375.39 251.47,375.17 252.04,375.53 C253.81,376.62 256.03,373.93 255.55,371.29 C255.02,368.39 256.83,365.00 258.55,365.66 C260.91,366.56 263.00,362.99 263.00,358.04 C263.00,353.22 263.71,352.26 267.88,351.42 C268.64,351.26 269.71,350.69 270.26,350.14 C271.40,349.00 271.63,339.83 270.57,338.11 C270.16,337.45 271.07,336.29 272.74,335.34 C274.31,334.43 276.81,332.00 278.30,329.94 C281.23,325.85 281.70,324.46 279.75,325.63 C278.80,326.21 278.80,326.01 279.79,324.80 C280.49,323.92 280.94,322.66 280.79,321.99 C280.63,321.32 281.25,320.64 282.16,320.49 C285.40,319.93 287.50,318.11 287.50,315.82 C287.50,314.13 288.52,313.00 291.25,311.67 C294.89,309.89 296.59,306.02 293.75,305.98 C292.83,305.97 292.86,305.74 293.86,305.11 C294.79,304.52 294.87,304.04 294.12,303.57 C292.55,302.60 298.64,294.00 300.89,294.00 C302.32,294.00 304.24,290.19 303.45,288.92 C303.09,288.34 303.55,287.05 304.46,286.05 C305.36,285.05 306.18,283.27 306.27,282.11 C306.41,280.18 307.24,279.56 309.25,279.88 C309.95,279.99 310.38,278.44 310.12,276.75 C310.05,276.34 310.44,276.00 310.97,276.00 C311.50,276.00 311.71,275.40 311.42,274.66 C311.14,273.92 311.60,272.75 312.44,272.05 C313.29,271.35 313.70,270.33 313.37,269.79 C313.03,269.24 313.76,269.34 314.99,269.99 C316.21,270.65 317.57,270.81 318.01,270.34 C318.68,269.63 319.78,263.40 319.95,259.29 C319.98,258.62 320.95,257.56 322.12,256.94 C323.84,256.02 324.09,256.06 323.46,257.15 C323.03,257.89 323.82,257.46 325.22,256.19 C326.87,254.69 327.79,252.76 327.84,250.69 C328.03,243.46 329.10,240.99 332.65,239.50 C335.50,238.31 335.98,237.67 335.60,235.55 C335.10,232.80 337.13,230.96 339.89,231.67 C340.78,231.90 342.09,231.13 342.82,229.94 C343.55,228.76 343.67,228.09 343.08,228.45 C342.38,228.88 342.07,227.69 342.17,224.98 C342.34,220.73 345.11,216.00 347.43,216.00 C348.83,216.00 353.33,205.34 352.50,204.00 C351.74,202.77 353.07,199.93 354.10,200.56 C354.60,200.87 355.00,200.61 355.00,200.00 C355.00,199.39 355.47,199.17 356.04,199.53 C357.81,200.62 360.03,197.93 359.55,195.29 C359.02,192.39 360.83,189.00 362.55,189.66 C365.13,190.65 367.00,186.98 367.00,180.93 C367.00,177.67 367.37,175.00 367.81,175.00 C368.26,175.00 369.59,174.10 370.77,173.00 C372.90,171.01 374.05,170.99 472.05,171.25 L 571.17 171.50 L 569.08 173.90 C566.88,176.44 566.36,179.49 567.96,180.47 C569.51,181.43 568.01,183.86 565.67,184.19 C564.30,184.39 563.38,185.33 563.18,186.75 C562.89,188.78 561.91,189.46 559.75,189.12 C558.93,188.99 558.66,190.46 558.97,193.36 C559.33,196.85 558.00,199.87 555.75,200.63 C554.51,201.05 553.19,201.32 552.81,201.22 C552.14,201.04 550.65,204.52 550.55,206.50 C550.52,207.05 549.94,207.56 549.25,207.62 C548.56,207.69 547.55,207.81 547.00,207.88 C546.45,207.94 546.00,209.12 546.00,210.50 C546.00,212.00 545.43,213.00 544.57,213.00 C542.76,213.00 541.89,215.69 542.54,219.26 C542.96,221.55 542.57,222.23 540.27,223.24 C537.16,224.61 535.87,226.01 536.36,227.50 C536.55,228.05 535.62,229.51 534.30,230.75 L 531.90 233.00 L 465.51 233.00 C421.62,233.00 398.91,232.66 398.49,231.98 C398.14,231.42 397.44,231.23 396.93,231.54 C396.42,231.86 396.00,231.55 396.00,230.86 C396.00,229.88 395.73,229.87 394.80,230.80 C394.14,231.46 391.89,232.00 389.80,232.00 C387.71,232.00 385.94,232.34 385.87,232.75 C385.80,233.16 385.64,234.62 385.52,236.00 C385.13,240.36 383.68,243.69 377.14,255.28 C375.96,257.36 375.00,259.86 375.00,260.83 C375.00,263.10 373.12,264.98 371.48,264.35 C370.78,264.08 369.86,264.41 369.45,265.09 C368.93,265.92 369.14,266.08 370.10,265.58 C370.87,265.18 370.63,265.56 369.56,266.43 C368.49,267.29 367.94,268.00 368.34,268.00 C368.74,268.00 368.61,268.87 368.04,269.93 C367.20,271.50 367.49,272.24 369.64,273.93 C371.09,275.07 371.85,276.00 371.33,276.00 C370.82,276.00 369.86,275.46 369.20,274.80 C368.54,274.14 368.00,273.88 368.00,274.23 C368.00,274.57 368.79,275.65 369.75,276.62 C371.29,278.18 371.30,278.31 369.85,277.76 C368.79,277.36 366.78,278.35 364.25,280.52 C361.00,283.30 360.33,284.48 360.48,287.20 C360.58,289.01 360.07,291.62 359.34,293.00 C358.62,294.38 358.02,295.13 358.01,294.68 C358.01,294.23 357.29,294.56 356.43,295.43 C355.56,296.29 354.14,297.00 353.26,297.00 C352.38,297.00 351.95,297.28 352.29,297.62 C352.63,297.96 352.24,298.91 351.42,299.72 C350.60,300.54 350.19,302.01 350.50,302.99 C350.88,304.20 349.92,305.86 347.53,308.11 C344.74,310.74 344.00,312.21 344.00,315.09 C344.00,317.99 343.31,319.34 340.66,321.62 C338.82,323.21 336.99,325.83 336.59,327.44 C336.19,329.06 335.15,331.99 334.28,333.94 C333.41,335.90 332.79,338.11 332.91,338.85 C333.03,339.59 332.70,339.94 332.18,339.61 C331.66,339.29 331.29,339.58 331.36,340.26 C331.44,340.94 331.17,341.50 330.77,341.50 C330.37,341.50 329.31,342.54 328.42,343.81 C327.20,345.55 327.00,347.03 327.61,349.81 C328.05,351.84 328.37,354.06 328.32,354.74 C328.27,355.42 328.68,355.70 329.24,355.35 C329.81,355.00 330.05,355.34 329.79,356.11 C329.53,356.87 330.40,358.44 331.72,359.59 C333.05,360.74 334.24,362.40 334.37,363.29 C334.76,365.99 337.92,368.73 340.32,368.47 C342.08,368.28 342.63,368.77 342.79,370.70 C343.06,374.04 343.93,375.24 345.58,374.61 C347.78,373.76 352.23,380.45 352.50,385.01 C352.87,391.05 354.31,392.17 361.42,391.88 C365.98,391.69 368.01,391.12 369.58,389.57 C372.73,386.47 376.30,380.97 375.61,380.28 C375.27,379.94 375.00,380.27 375.00,381.00 C375.00,381.73 374.77,382.11 374.50,381.83 C374.22,381.55 374.69,379.93 375.53,378.23 C376.89,375.51 377.46,375.20 380.32,375.66 C383.08,376.11 383.58,375.88 383.72,374.10 C383.80,372.94 383.57,372.00 383.19,372.00 C382.81,372.00 382.50,369.87 382.50,367.25 C382.50,362.22 384.00,360.56 389.22,359.82 C391.26,359.53 391.50,358.95 391.50,354.24 C391.50,349.63 391.89,348.61 394.64,346.04 C396.36,344.43 398.01,343.34 398.30,343.63 C398.72,344.05 399.74,341.94 400.54,339.00 C401.24,336.40 402.39,335.29 403.95,335.70 C406.15,336.27 407.42,334.53 407.74,330.50 C408.36,322.71 409.03,321.61 414.27,319.76 C414.70,319.61 415.28,318.14 415.57,316.49 C416.15,313.12 418.50,310.87 420.59,311.67 C422.35,312.35 422.90,310.83 423.32,304.26 C423.69,298.37 423.83,298.11 427.04,297.49 C429.49,297.02 431.42,295.53 431.62,293.95 C431.69,293.43 431.81,292.55 431.88,292.00 C431.96,291.36 443.21,291.00 463.39,291.00 C491.10,291.00 494.86,291.19 495.39,292.58 C496.43,295.28 496.08,296.00 493.75,296.03 C490.91,296.07 488.60,297.92 488.15,300.50 C487.68,303.26 486.10,304.98 484.59,304.40 C483.89,304.13 482.74,304.60 482.04,305.45 C481.12,306.56 481.08,307.00 481.92,307.00 C482.59,307.00 482.00,308.84 480.52,311.37 C479.07,313.85 478.23,316.44 478.59,317.37 C478.95,318.30 478.71,319.00 478.05,319.00 C477.41,319.00 477.16,319.45 477.50,320.00 C477.84,320.55 477.70,321.00 477.18,321.00 C476.66,321.00 475.70,322.32 475.03,323.93 C474.36,325.54 472.99,327.61 471.98,328.52 C470.96,329.44 470.35,330.76 470.62,331.46 C470.89,332.16 469.80,333.96 468.20,335.47 C466.29,337.27 465.39,339.03 465.56,340.61 C465.71,341.92 465.41,343.00 464.91,343.00 C464.41,343.00 464.05,343.34 464.12,343.75 C464.18,344.16 464.13,344.84 463.99,345.25 C463.47,346.87 463.24,348.08 463.12,349.97 C463.04,351.30 461.97,352.21 459.85,352.76 C458.11,353.21 455.97,354.67 455.10,356.00 C454.17,357.40 454.02,358.10 454.74,357.66 C455.57,357.14 455.79,357.38 455.40,358.39 C455.09,359.21 453.91,360.02 452.78,360.19 C451.65,360.36 450.00,361.61 449.11,362.96 C447.99,364.67 447.91,365.16 448.85,364.59 C449.94,363.92 449.98,364.16 449.10,365.81 C448.49,366.94 448.00,369.44 448.00,371.36 C448.00,374.44 447.61,374.98 444.56,375.98 C440.69,377.26 439.83,378.65 441.23,381.37 C441.91,382.68 441.87,383.04 441.10,382.56 C440.03,381.90 439.88,382.43 439.69,387.25 C439.65,388.49 438.57,390.41 437.30,391.53 C436.04,392.65 435.00,394.25 435.00,395.08 C435.00,395.92 434.44,397.16 433.76,397.84 C431.92,399.68 431.91,404.97 433.75,404.27 C434.98,403.79 435.00,404.02 433.87,405.84 C432.14,408.61 430.54,409.15 427.49,408.00 C426.12,407.48 424.97,407.15 424.92,407.27 C424.76,407.76 423.98,411.08 423.67,412.64 C423.49,413.54 422.59,414.83 421.67,415.50 C420.75,416.17 419.99,417.57 419.98,418.61 C419.97,420.20 419.81,420.26 419.00,419.00 C418.18,417.73 418.03,417.78 418.02,419.31 C418.01,420.30 417.62,420.89 417.17,420.60 C415.96,419.86 415.98,423.14 417.20,425.67 C418.08,427.48 417.79,428.30 415.42,430.67 C413.86,432.23 412.46,433.39 412.30,433.25 C411.33,432.43 410.12,433.25 410.10,434.75 C410.08,435.71 409.78,438.64 409.44,441.25 C408.95,444.88 409.12,446.01 410.15,446.03 C412.49,446.08 408.18,448.11 405.25,448.33 C403.04,448.50 402.50,449.07 402.32,451.40 C402.20,452.97 401.19,455.10 400.08,456.14 C398.22,457.88 398.17,461.00 400.02,461.00 C400.46,461.00 400.71,461.79 400.56,462.75 C400.38,463.95 399.55,464.42 397.90,464.24 C394.51,463.88 392.91,465.23 392.10,469.12 C391.52,471.90 391.00,472.44 389.14,472.18 C386.27,471.77 384.04,473.59 384.03,476.36 C384.03,477.54 383.95,479.17 383.86,480.00 C383.76,480.83 383.99,482.46 384.37,483.63 C384.90,485.25 384.57,485.88 383.01,486.29 C381.88,486.58 380.79,486.75 380.58,486.66 C380.38,486.57 379.24,487.38 378.04,488.46 C376.46,489.89 375.95,491.38 376.14,493.99 C376.28,495.95 375.98,498.22 375.47,499.03 C374.97,499.84 374.46,501.10 374.35,501.84 C374.09,503.61 373.74,503.90 371.44,504.26 C370.37,504.42 368.97,504.89 368.31,505.30 C367.66,505.71 366.76,505.42 366.31,504.66 C365.87,503.89 364.07,502.54 362.32,501.64 C360.10,500.51 359.04,499.18 358.82,497.26 C358.60,495.33 357.89,494.46 356.50,494.36 C355.40,494.28 353.97,494.16 353.32,494.11 C352.06,493.99 350.41,490.17 350.90,488.50 C352.45,483.18 350.62,479.97 346.47,480.76 C344.09,481.22 343.30,479.90 343.94,476.56 C344.50,473.69 342.82,471.00 340.47,471.00 C337.73,471.00 334.80,468.18 333.95,464.73 C333.65,463.50 332.66,462.49 331.74,462.49 C329.44,462.47 327.72,460.54 327.57,457.80 C327.50,456.53 327.06,454.89 326.59,454.14 C326.12,453.38 326.13,452.49 326.62,452.14 C327.10,451.79 327.55,450.76 327.62,449.85 C327.71,448.68 327.05,448.28 325.31,448.47 C322.29,448.80 320.00,446.63 320.00,443.43 C320.00,440.72 316.81,437.00 314.48,437.00 C313.65,437.00 312.22,435.43 311.30,433.51 C310.39,431.59 308.82,429.76 307.82,429.44 C306.82,429.13 306.00,428.42 306.00,427.87 C306.00,427.33 305.48,427.20 304.85,427.60 C304.16,428.02 303.96,427.87 304.35,427.24 C304.72,426.64 304.35,425.49 303.53,424.68 C302.72,423.86 301.91,421.46 301.74,419.35 C301.45,415.66 301.30,415.50 297.97,415.61 C291.36,415.83 287.18,417.87 288.60,420.17 C288.86,420.59 288.15,422.75 287.02,424.97 C285.89,427.18 285.31,429.01 285.73,429.02 C286.15,429.03 285.03,429.97 283.24,431.12 C281.45,432.27 279.72,434.27 279.40,435.56 C279.07,436.86 278.18,438.44 277.41,439.07 C276.65,439.71 276.24,440.57 276.50,441.00 C276.76,441.43 276.24,441.71 275.35,441.64 C274.45,441.56 273.50,442.13 273.23,442.89 C272.95,443.69 273.19,444.00 273.80,443.62 C274.39,443.26 274.15,444.39 273.28,446.14 C272.41,447.88 271.65,450.34 271.60,451.59 C271.54,453.01 270.18,454.75 268.00,456.22 C266.08,457.52 264.50,459.24 264.50,460.04 C264.50,461.91 262.03,463.93 259.69,463.97 C258.70,463.99 258.16,464.45 258.50,465.00 C258.84,465.55 258.61,466.00 258.00,466.00 C257.39,466.00 257.16,466.45 257.50,467.00 C257.84,467.55 257.69,468.00 257.17,468.00 C256.36,468.00 255.64,470.71 254.83,476.76 C254.74,477.45 252.99,478.52 250.94,479.14 C247.53,480.16 246.52,481.85 248.26,483.60 C249.11,484.44 246.26,490.00 244.97,490.00 C244.44,490.00 244.11,490.56 244.25,491.25 C244.39,491.94 243.94,492.39 243.25,492.25 C242.56,492.11 242.00,492.70 242.00,493.56 C242.00,494.42 241.55,494.84 241.00,494.50 C240.44,494.16 240.00,494.91 240.00,496.19 C239.99,499.15 236.71,504.55 234.05,505.97 C232.92,506.58 232.00,507.70 232.00,508.48 C232.00,509.25 231.52,510.18 230.94,510.54 ZM 227.00 271.33 C227.00,271.01 226.36,271.29 225.57,271.94 C224.43,272.89 223.92,272.72 223.03,271.06 C222.43,269.93 222.33,269.00 222.83,269.00 C223.32,269.00 223.57,267.76 223.39,266.25 C223.21,264.74 222.96,262.15 222.85,260.50 C222.60,256.90 221.33,255.01 219.13,254.97 C216.53,254.92 213.69,252.31 214.61,250.82 C216.56,247.67 215.81,244.08 212.49,240.55 C210.64,238.60 208.63,237.00 208.01,237.00 C207.39,237.00 207.15,236.56 207.49,236.02 C208.72,234.03 205.99,231.00 202.96,231.00 C201.33,231.00 200.00,231.45 200.00,232.00 C200.00,233.60 65.51,233.36 64.30,231.75 C63.47,230.65 63.22,229.43 62.77,224.29 C62.71,223.63 62.33,223.30 61.92,223.55 C61.51,223.80 61.02,223.63 60.84,223.16 C60.65,222.69 59.17,221.68 57.55,220.91 C54.75,219.57 54.62,219.22 54.87,213.93 C55.06,209.85 54.71,208.00 53.56,207.05 C52.70,206.34 51.99,206.15 51.98,206.63 C51.98,207.11 51.64,207.05 51.23,206.50 C50.83,205.95 49.63,205.02 48.56,204.43 C46.95,203.54 46.66,202.42 46.87,197.85 C47.06,193.85 46.70,192.00 45.56,191.05 C44.70,190.34 43.99,190.15 43.98,190.63 C43.98,191.11 43.64,191.05 43.23,190.50 C42.83,189.95 41.65,189.03 40.61,188.46 C39.08,187.62 38.72,186.30 38.75,181.71 C38.77,178.58 38.39,176.26 37.89,176.57 C37.40,176.87 37.00,176.39 37.00,175.50 C37.00,174.61 36.60,174.13 36.10,174.44 C35.36,174.90 34.00,172.94 34.00,171.41 C34.00,171.17 79.34,171.00 134.75,171.02 C205.41,171.04 235.05,171.37 234.00,172.10 C232.87,172.90 232.81,173.28 233.76,173.66 C234.45,173.94 234.71,174.69 234.35,175.34 C233.98,175.98 234.05,176.17 234.50,175.76 C235.78,174.59 238.00,177.00 238.00,179.56 C238.00,180.84 238.45,182.16 239.00,182.50 C239.55,182.84 240.00,184.92 240.00,187.12 C240.00,189.53 240.40,190.87 241.00,190.50 C241.55,190.16 242.00,190.43 242.00,191.11 C242.00,191.78 242.30,192.04 242.66,191.68 C243.78,190.55 246.00,193.13 246.00,195.56 C246.00,196.84 246.45,198.16 247.00,198.50 C247.55,198.84 248.00,200.92 248.00,203.12 C248.00,205.53 248.40,206.87 249.00,206.50 C249.55,206.16 250.00,206.43 250.00,207.11 C250.00,207.78 250.30,208.04 250.66,207.68 C251.73,206.60 254.00,209.08 254.03,211.37 C254.05,212.54 254.71,214.35 255.50,215.40 C256.29,216.44 256.70,217.67 256.42,218.13 C256.14,218.58 256.36,219.80 256.91,220.82 C257.62,222.16 257.50,223.26 256.49,224.71 C255.71,225.83 255.34,227.01 255.67,227.34 C256.64,228.30 253.10,233.00 251.41,233.00 C249.19,233.00 247.52,235.10 247.40,238.00 C247.35,239.38 246.96,241.28 246.55,242.24 C245.99,243.53 246.41,244.26 248.15,245.02 C250.44,246.03 250.44,246.04 248.25,245.62 C247.01,245.38 246.00,245.62 246.00,246.15 C246.00,246.68 245.57,246.85 245.04,246.52 C244.51,246.20 243.19,246.81 242.12,247.88 C241.05,248.95 239.84,249.53 239.45,249.17 C239.05,248.80 239.20,249.41 239.78,250.53 C241.13,253.12 239.58,256.16 237.35,255.30 C235.84,254.72 233.64,257.07 233.40,259.50 C233.35,260.05 232.96,261.29 232.54,262.26 C232.12,263.23 231.97,265.35 232.21,266.98 C232.58,269.49 232.23,270.07 229.82,270.91 C228.27,271.45 227.00,271.64 227.00,271.33 Z" fill="rgb(1,1,1)"/>
<path d="M 230.94 510.54 C231.52,510.18 232.00,509.25 232.00,508.48 C232.00,507.70 232.92,506.58 234.05,505.97 C236.71,504.55 239.99,499.15 240.00,496.19 C240.00,494.91 240.44,494.16 241.00,494.50 C241.55,494.84 242.00,494.42 242.00,493.56 C242.00,492.70 242.56,492.11 243.25,492.25 C243.94,492.39 244.39,491.94 244.25,491.25 C244.11,490.56 244.44,490.00 244.97,490.00 C246.26,490.00 249.11,484.44 248.26,483.60 C246.52,481.85 247.53,480.16 250.94,479.14 C252.99,478.52 254.74,477.45 254.83,476.76 C255.64,470.71 256.36,468.00 257.17,468.00 C257.69,468.00 257.84,467.55 257.50,467.00 C257.16,466.45 257.39,466.00 258.00,466.00 C258.61,466.00 258.84,465.55 258.50,465.00 C258.16,464.45 258.70,463.99 259.69,463.97 C262.03,463.93 264.50,461.91 264.50,460.04 C264.50,459.24 266.08,457.52 268.00,456.22 C270.18,454.75 271.54,453.01 271.60,451.59 C271.65,450.34 272.41,447.88 273.28,446.14 C274.15,444.39 274.39,443.26 273.80,443.62 C273.19,444.00 272.95,443.69 273.23,442.89 C273.50,442.13 274.45,441.56 275.35,441.64 C276.24,441.71 276.76,441.43 276.50,441.00 C276.24,440.57 276.65,439.71 277.41,439.07 C278.18,438.44 279.07,436.86 279.40,435.56 C279.72,434.27 281.45,432.27 283.24,431.12 C285.03,429.97 286.15,429.03 285.73,429.02 C285.31,429.01 285.89,427.18 287.02,424.97 C288.15,422.75 288.86,420.59 288.60,420.17 C287.18,417.87 291.36,415.83 297.97,415.61 C301.30,415.50 301.45,415.66 301.74,419.35 C301.91,421.46 302.72,423.86 303.53,424.68 C304.35,425.49 304.72,426.64 304.35,427.24 C303.96,427.87 304.16,428.02 304.85,427.60 C305.48,427.20 306.00,427.33 306.00,427.87 C306.00,428.42 306.82,429.13 307.82,429.44 C308.82,429.76 310.39,431.59 311.30,433.51 C312.22,435.43 313.65,437.00 314.48,437.00 C316.81,437.00 320.00,440.72 320.00,443.43 C320.00,446.63 322.29,448.80 325.31,448.47 C327.05,448.28 327.71,448.68 327.62,449.85 C327.55,450.76 327.10,451.79 326.62,452.14 C326.13,452.49 326.12,453.38 326.59,454.14 C327.06,454.89 327.50,456.53 327.57,457.80 C327.72,460.54 329.44,462.47 331.74,462.49 C332.66,462.49 333.65,463.50 333.95,464.73 C334.80,468.18 337.73,471.00 340.47,471.00 C342.82,471.00 344.50,473.69 343.94,476.56 C343.30,479.90 344.09,481.22 346.47,480.76 C350.62,479.97 352.45,483.18 350.90,488.50 C350.41,490.17 352.06,493.99 353.32,494.11 C353.97,494.16 355.40,494.28 356.50,494.36 C357.89,494.46 358.60,495.33 358.82,497.26 C359.04,499.18 360.10,500.51 362.32,501.64 C364.07,502.54 365.87,503.89 366.31,504.66 C366.76,505.42 367.66,505.71 368.31,505.30 C368.97,504.89 370.37,504.42 371.44,504.26 C373.74,503.90 374.09,503.61 374.35,501.84 C374.46,501.10 374.97,499.84 375.47,499.03 C375.98,498.22 376.28,495.95 376.14,493.99 C375.95,491.38 376.46,489.89 378.04,488.46 C379.24,487.38 380.38,486.57 380.58,486.66 C380.79,486.75 381.88,486.58 383.01,486.29 C384.57,485.88 384.90,485.25 384.37,483.63 C383.99,482.46 383.76,480.83 383.86,480.00 C383.95,479.17 384.03,477.54 384.03,476.36 C384.04,473.59 386.27,471.77 389.14,472.18 C391.00,472.44 391.52,471.90 392.10,469.12 C392.91,465.23 394.51,463.88 397.90,464.24 C399.55,464.42 400.38,463.95 400.56,462.75 C400.71,461.79 400.46,461.00 400.02,461.00 C398.17,461.00 398.22,457.88 400.08,456.14 C401.19,455.10 402.20,452.97 402.32,451.40 C402.50,449.07 403.04,448.50 405.25,448.33 C408.18,448.11 412.49,446.08 410.15,446.03 C409.12,446.01 408.95,444.88 409.44,441.25 C409.78,438.64 410.08,435.71 410.10,434.75 C410.12,433.25 411.33,432.43 412.30,433.25 C412.46,433.39 413.86,432.23 415.42,430.67 C417.79,428.30 418.08,427.48 417.20,425.67 C415.98,423.14 415.96,419.86 417.17,420.60 C417.62,420.89 418.01,420.30 418.02,419.31 C418.03,417.78 418.18,417.73 419.00,419.00 C419.81,420.26 419.97,420.20 419.98,418.61 C419.99,417.57 420.75,416.17 421.67,415.50 C422.59,414.83 423.49,413.54 423.67,412.64 C423.98,411.08 424.76,407.76 424.92,407.27 C424.97,407.15 426.12,407.48 427.49,408.00 C430.27,409.05 431.84,408.70 433.41,406.52 C429.94,412.63 426.58,418.55 423.49,424.00 C419.11,431.71 415.08,438.81 411.37,445.36 C373.98,511.24 368.95,520.10 367.64,519.58 C367.31,519.45 367.22,518.71 366.90,518.14 C366.06,516.69 359.89,508.08 353.19,499.00 C346.49,489.92 336.04,475.75 329.98,467.50 C301.18,428.32 296.46,422.01 295.86,422.01 C295.30,422.00 281.02,443.48 263.45,470.74 C260.18,475.83 251.09,489.78 243.25,501.74 C235.41,513.70 229.00,523.83 229.00,524.24 C229.00,527.03 225.33,521.16 208.09,490.74 C197.41,471.91 179.46,440.30 168.21,420.50 C156.96,400.70 144.04,377.98 139.52,370.00 C134.99,362.02 126.56,347.17 120.77,337.00 C102.20,304.35 98.00,296.86 98.00,296.41 C98.00,296.30 102.16,296.22 108.90,296.18 C103.61,296.41 103.40,296.90 103.47,297.91 C103.65,300.32 107.09,305.06 108.18,304.39 C108.62,304.12 108.73,304.54 108.43,305.32 C108.13,306.10 108.70,307.55 109.69,308.55 C110.69,309.54 111.59,311.06 111.70,311.93 C111.81,312.79 112.01,314.49 112.16,315.69 C112.33,317.12 113.69,318.46 116.10,319.54 C119.60,321.12 119.76,321.41 119.51,325.60 C119.37,328.02 119.62,330.00 120.06,330.00 C120.50,330.00 121.01,331.24 121.18,332.75 C121.43,334.91 122.13,335.60 124.50,336.01 C126.21,336.30 127.53,337.16 127.56,338.01 C127.71,341.75 129.18,344.08 131.02,343.49 C132.85,342.91 135.61,346.05 134.36,347.30 C134.05,347.61 134.17,348.46 134.62,349.18 C135.07,349.91 135.30,351.55 135.14,352.83 C134.80,355.46 137.38,358.80 140.75,360.09 C142.89,360.91 143.44,362.37 143.06,366.19 C142.97,367.13 143.38,369.71 143.99,371.94 C144.78,374.88 145.60,376.00 146.98,376.00 C149.73,376.00 152.00,379.82 152.01,384.47 C152.02,387.98 152.48,388.80 155.57,390.79 C158.19,392.49 158.95,393.57 158.51,394.97 C157.78,397.28 161.41,400.96 163.82,400.35 C164.78,400.10 166.04,400.79 166.76,401.96 C167.45,403.08 167.60,404.00 167.10,404.00 C165.96,404.00 166.31,407.83 167.70,410.51 C168.27,411.60 168.51,413.13 168.24,413.89 C167.93,414.74 168.18,415.01 168.87,414.58 C169.49,414.20 170.00,414.33 170.00,414.87 C170.00,415.42 170.86,416.14 171.91,416.47 C172.96,416.80 174.08,417.76 174.40,418.59 C174.77,419.57 174.57,419.85 173.82,419.39 C173.18,418.99 173.41,419.74 174.33,421.06 C175.26,422.39 176.00,425.34 176.00,427.72 C176.00,431.69 176.20,432.01 178.75,432.12 C180.26,432.18 181.76,432.21 182.08,432.17 C182.40,432.14 182.72,432.65 182.79,433.31 C182.86,433.96 183.32,436.37 183.81,438.65 C184.30,440.94 184.31,443.47 183.85,444.31 C182.70,446.36 183.88,449.34 185.37,448.14 C187.51,446.42 190.59,448.69 191.85,452.90 C193.01,456.75 193.28,456.98 196.32,456.61 L 199.56 456.21 L 199.20 462.42 L 198.84 468.63 L 202.82 470.42 C206.04,471.87 206.75,472.67 206.54,474.63 C206.39,475.96 206.63,477.27 207.07,477.54 C207.51,477.82 207.86,478.82 207.84,479.77 C207.79,482.93 208.96,486.49 210.39,487.50 C211.17,488.05 212.73,489.15 213.87,489.94 C215.53,491.11 215.69,491.67 214.71,492.89 C213.76,494.06 213.76,494.23 214.72,493.65 C215.63,493.11 215.86,494.19 215.64,497.91 L 215.34 502.90 L 218.92 503.20 C222.14,503.47 222.63,503.91 223.80,507.61 C224.89,511.05 225.49,511.67 227.49,511.45 C228.81,511.31 230.36,510.89 230.94,510.54 ZM 226.00 386.76 C230.30,394.38 232.98,399.00 233.13,399.00 C233.48,399.00 243.13,383.14 254.58,363.75 C266.03,344.36 281.91,317.48 289.87,304.00 C297.82,290.52 310.71,268.70 318.50,255.50 C326.28,242.30 340.71,217.89 350.54,201.25 L 368.43 171.00 L 577.07 171.00 L 575.89 173.25 C575.24,174.49 570.88,182.02 566.21,190.00 C561.54,197.98 555.26,208.77 552.25,214.00 C549.25,219.23 545.44,225.64 543.79,228.25 L 540.79 233.00 L 531.90 233.00 L 534.30 230.75 C535.62,229.51 536.55,228.05 536.36,227.50 C535.87,226.01 537.16,224.61 540.27,223.24 C542.57,222.23 542.96,221.55 542.54,219.26 C541.89,215.69 542.76,213.00 544.57,213.00 C545.43,213.00 546.00,212.00 546.00,210.50 C546.00,209.12 546.45,207.94 547.00,207.88 C547.55,207.81 548.56,207.69 549.25,207.62 C549.94,207.56 550.52,207.05 550.55,206.50 C550.65,204.52 552.14,201.04 552.81,201.22 C553.19,201.32 554.51,201.05 555.75,200.63 C558.00,199.87 559.33,196.85 558.97,193.36 C558.66,190.46 558.93,188.99 559.75,189.12 C561.91,189.46 562.89,188.78 563.18,186.75 C563.38,185.33 564.30,184.39 565.67,184.19 C568.01,183.86 569.51,181.43 567.96,180.47 C566.36,179.49 566.88,176.44 569.08,173.90 L 571.17 171.50 L 472.05 171.25 C374.05,170.99 372.90,171.01 370.77,173.00 C369.59,174.10 368.26,175.00 367.81,175.00 C367.37,175.00 367.00,177.67 367.00,180.93 C367.00,186.98 365.13,190.65 362.55,189.66 C360.83,189.00 359.02,192.39 359.55,195.29 C360.03,197.93 357.81,200.62 356.04,199.53 C355.47,199.17 355.00,199.39 355.00,200.00 C355.00,200.61 354.60,200.87 354.10,200.56 C353.07,199.93 351.74,202.77 352.50,204.00 C353.33,205.34 348.83,216.00 347.43,216.00 C345.11,216.00 342.34,220.73 342.17,224.98 C342.07,227.69 342.38,228.88 343.08,228.45 C343.67,228.09 343.55,228.76 342.82,229.94 C342.09,231.13 340.78,231.90 339.89,231.67 C337.13,230.96 335.10,232.80 335.60,235.55 C335.98,237.67 335.50,238.31 332.65,239.50 C329.10,240.99 328.03,243.46 327.84,250.69 C327.79,252.76 326.87,254.69 325.22,256.19 C323.82,257.46 323.03,257.89 323.46,257.15 C324.09,256.06 323.84,256.02 322.12,256.94 C320.95,257.56 319.98,258.62 319.95,259.29 C319.78,263.40 318.68,269.63 318.01,270.34 C317.57,270.81 316.21,270.65 314.99,269.99 C313.76,269.34 313.03,269.24 313.37,269.79 C313.70,270.33 313.29,271.35 312.44,272.05 C311.60,272.75 311.14,273.92 311.42,274.66 C311.71,275.40 311.50,276.00 310.97,276.00 C310.44,276.00 310.05,276.34 310.12,276.75 C310.38,278.44 309.95,279.99 309.25,279.88 C307.24,279.56 306.41,280.18 306.27,282.11 C306.18,283.27 305.36,285.05 304.46,286.05 C303.55,287.05 303.09,288.34 303.45,288.92 C304.24,290.19 302.32,294.00 300.89,294.00 C298.64,294.00 292.55,302.60 294.12,303.57 C294.87,304.04 294.79,304.52 293.86,305.11 C292.86,305.74 292.83,305.97 293.75,305.98 C296.59,306.02 294.89,309.89 291.25,311.67 C288.52,313.00 287.50,314.13 287.50,315.82 C287.50,318.11 285.40,319.93 282.16,320.49 C281.25,320.64 280.63,321.32 280.79,321.99 C280.94,322.66 280.49,323.92 279.79,324.80 C278.80,326.01 278.80,326.21 279.75,325.63 C281.70,324.46 281.23,325.85 278.30,329.94 C276.81,332.00 274.31,334.43 272.74,335.34 C271.07,336.29 270.16,337.45 270.57,338.11 C271.63,339.83 271.40,349.00 270.26,350.14 C269.71,350.69 268.64,351.26 267.88,351.42 C263.71,352.26 263.00,353.22 263.00,358.04 C263.00,362.99 260.91,366.56 258.55,365.66 C256.83,365.00 255.02,368.39 255.55,371.29 C256.03,373.93 253.81,376.62 252.04,375.53 C251.47,375.17 251.00,375.39 251.00,376.00 C251.00,376.61 250.60,376.87 250.10,376.56 C249.07,375.93 247.74,378.77 248.50,380.00 C249.35,381.37 244.81,392.00 243.37,392.00 C240.91,392.00 238.29,395.11 238.57,397.68 C238.84,400.11 238.72,400.15 232.92,399.78 C229.66,399.58 227.00,399.82 227.00,400.33 C227.00,400.83 226.32,400.68 225.49,399.99 C224.67,399.31 224.00,397.56 224.02,396.12 C224.04,394.68 223.77,392.04 223.42,390.25 C222.88,387.52 223.07,386.99 224.64,386.97 C225.52,386.95 225.97,386.94 226.00,386.76 ZM 461.54 291.00 C442.53,291.02 431.95,291.38 431.88,292.00 C431.81,292.55 431.69,293.43 431.62,293.95 C431.42,295.53 429.49,297.02 427.04,297.49 C423.83,298.11 423.69,298.37 423.32,304.26 C422.90,310.83 422.35,312.35 420.59,311.67 C418.50,310.87 416.15,313.12 415.57,316.49 C415.28,318.14 414.70,319.61 414.27,319.76 C409.03,321.61 408.36,322.71 407.74,330.50 C407.42,334.53 406.15,336.27 403.95,335.70 C402.39,335.29 401.24,336.40 400.54,339.00 C399.74,341.94 398.72,344.05 398.30,343.63 C398.01,343.34 396.36,344.43 394.64,346.04 C391.89,348.61 391.50,349.63 391.50,354.24 C391.50,358.95 391.26,359.53 389.22,359.82 C384.00,360.56 382.50,362.22 382.50,367.25 C382.50,369.87 382.81,372.00 383.19,372.00 C383.57,372.00 383.80,372.94 383.72,374.10 C383.58,375.88 383.08,376.11 380.32,375.66 C377.46,375.20 376.89,375.51 375.53,378.23 C374.69,379.93 374.22,381.55 374.50,381.83 C374.77,382.11 375.00,381.73 375.00,381.00 C375.00,380.27 375.27,379.94 375.61,380.28 C376.30,380.97 372.73,386.47 369.58,389.57 C368.01,391.12 365.98,391.69 361.42,391.88 C354.31,392.17 352.87,391.05 352.50,385.01 C352.23,380.45 347.78,373.76 345.58,374.61 C343.93,375.24 343.06,374.04 342.79,370.70 C342.63,368.77 342.08,368.28 340.32,368.47 C337.92,368.73 334.76,365.99 334.37,363.29 C334.24,362.40 333.05,360.74 331.72,359.59 C330.40,358.44 329.53,356.87 329.79,356.11 C330.05,355.34 329.81,355.00 329.24,355.35 C328.68,355.70 328.27,355.42 328.32,354.74 C328.37,354.06 328.05,351.84 327.61,349.81 C327.00,347.03 327.20,345.55 328.42,343.81 C329.31,342.54 330.37,341.50 330.77,341.50 C331.17,341.50 331.44,340.94 331.36,340.26 C331.29,339.58 331.66,339.29 332.18,339.61 C332.70,339.94 333.03,339.59 332.91,338.85 C332.79,338.11 333.41,335.90 334.28,333.94 C335.15,331.99 336.19,329.06 336.59,327.44 C336.99,325.83 338.82,323.21 340.66,321.62 C343.31,319.34 344.00,317.99 344.00,315.09 C344.00,312.21 344.74,310.74 347.53,308.11 C349.92,305.86 350.88,304.20 350.50,302.99 C350.19,302.01 350.60,300.54 351.42,299.72 C352.24,298.91 352.63,297.96 352.29,297.62 C351.95,297.28 352.38,297.00 353.26,297.00 C354.14,297.00 355.56,296.29 356.43,295.43 C357.29,294.56 358.01,294.23 358.01,294.68 C358.02,295.13 358.62,294.38 359.34,293.00 C360.07,291.62 360.58,289.01 360.48,287.20 C360.33,284.48 361.00,283.30 364.25,280.52 C366.78,278.35 368.79,277.36 369.85,277.76 C370.04,277.84 370.21,277.90 370.35,277.95 C357.24,301.93 341.63,330.57 336.82,339.50 C334.75,343.35 333.04,347.07 333.03,347.78 C333.01,348.48 339.81,358.11 348.13,369.18 L 363.26 389.30 L 365.08 386.90 C366.08,385.58 370.56,378.65 375.04,371.50 C379.51,364.35 391.45,345.45 401.58,329.50 C411.70,313.55 421.23,298.36 422.74,295.75 L 425.50 291.00 ZM 434.69 404.26 C434.73,403.96 434.42,404.01 433.75,404.27 C431.91,404.97 431.92,399.68 433.76,397.84 C434.44,397.16 435.00,395.92 435.00,395.08 C435.00,394.25 436.04,392.65 437.30,391.53 C438.57,390.41 439.65,388.49 439.69,387.25 C439.88,382.43 440.03,381.90 441.10,382.56 C441.87,383.04 441.91,382.68 441.23,381.37 C439.83,378.65 440.69,377.26 444.56,375.98 C447.61,374.98 448.00,374.44 448.00,371.36 C448.00,369.44 448.49,366.94 449.10,365.81 C449.98,364.16 449.94,363.92 448.85,364.59 C447.91,365.16 447.99,364.67 449.11,362.96 C450.00,361.61 451.65,360.36 452.78,360.19 C453.91,360.02 455.09,359.21 455.40,358.39 C455.79,357.38 455.57,357.14 454.74,357.66 C454.02,358.10 454.17,357.40 455.10,356.00 C455.97,354.67 458.11,353.21 459.85,352.76 C461.97,352.21 463.04,351.30 463.12,349.97 C463.24,348.08 463.47,346.87 463.99,345.25 C464.13,344.84 464.18,344.16 464.12,343.75 C464.05,343.34 464.41,343.00 464.91,343.00 C465.41,343.00 465.71,341.92 465.56,340.61 C465.39,339.03 466.29,337.27 468.20,335.47 C469.80,333.96 470.89,332.16 470.62,331.46 C470.35,330.76 470.96,329.44 471.98,328.52 C472.99,327.61 474.36,325.54 475.03,323.93 C475.70,322.32 476.66,321.00 477.18,321.00 C477.70,321.00 477.84,320.55 477.50,320.00 C477.16,319.45 477.41,319.00 478.05,319.00 C478.71,319.00 478.95,318.30 478.59,317.37 C478.23,316.44 479.07,313.85 480.52,311.37 C482.00,308.84 482.59,307.00 481.92,307.00 C481.08,307.00 481.12,306.56 482.04,305.45 C482.74,304.60 483.89,304.13 484.59,304.40 C486.10,304.98 487.68,303.26 488.15,300.50 C488.60,297.92 490.91,296.07 493.75,296.03 C496.08,296.00 496.43,295.28 495.39,292.58 C494.88,291.24 491.38,291.02 466.50,291.00 L 499.16 291.00 L 497.20 294.25 C496.12,296.04 493.10,301.33 490.48,306.00 C487.86,310.67 477.53,328.90 467.52,346.50 C459.96,359.79 446.80,382.95 434.69,404.26 ZM 172.77 296.48 L 176.12 296.50 L 204.31 347.75 C212.81,363.19 220.54,377.09 225.85,386.51 C225.66,386.30 225.26,385.99 224.65,385.54 C223.64,384.77 222.25,384.35 221.56,384.61 C220.88,384.88 219.75,384.40 219.05,383.56 C218.35,382.71 217.46,382.22 217.07,382.46 C216.68,382.70 215.67,381.35 214.82,379.47 C213.96,377.59 213.65,376.28 214.12,376.57 C214.59,376.87 214.72,376.44 214.41,375.63 C214.10,374.82 213.18,373.90 212.37,373.59 C211.55,373.27 211.16,373.46 211.50,374.00 C211.84,374.55 211.44,374.72 210.59,374.40 C208.72,373.68 208.05,371.68 207.83,366.13 C207.70,362.78 207.20,361.65 205.58,361.03 C201.52,359.47 199.73,356.37 199.85,351.07 C199.91,348.34 199.51,345.82 198.96,345.48 C198.42,345.14 198.27,344.37 198.64,343.78 C199.04,343.13 198.84,342.98 198.15,343.40 C197.46,343.83 197.00,343.47 197.00,342.50 C197.00,341.53 196.54,341.17 195.85,341.60 C195.21,341.99 194.96,341.87 195.29,341.33 C195.63,340.80 195.00,338.89 193.91,337.10 C192.82,335.31 192.50,334.19 193.20,334.62 C193.90,335.05 192.73,333.29 190.61,330.70 C188.49,328.12 186.39,326.00 185.95,326.00 C185.16,326.00 183.92,323.08 183.39,320.00 C182.48,314.63 181.02,312.00 178.95,312.00 C176.55,312.00 175.68,310.48 176.83,308.27 C177.84,306.33 176.98,302.90 175.46,302.78 C172.75,302.57 171.21,300.58 172.05,298.37 ZM 249.71 245.74 C249.46,245.60 248.94,245.37 248.15,245.02 C246.41,244.26 245.99,243.53 246.55,242.24 C246.96,241.28 247.35,239.38 247.40,238.00 C247.52,235.10 249.19,233.00 251.41,233.00 C253.10,233.00 256.64,228.30 255.67,227.34 C255.34,227.01 255.71,225.83 256.49,224.71 C257.50,223.26 257.62,222.16 256.91,220.82 C256.36,219.80 256.14,218.58 256.42,218.13 C256.70,217.67 256.29,216.44 255.50,215.40 C254.71,214.35 254.05,212.54 254.03,211.37 C254.00,209.08 251.73,206.60 250.66,207.68 C250.30,208.04 250.00,207.78 250.00,207.11 C250.00,206.43 249.55,206.16 249.00,206.50 C248.40,206.87 248.00,205.53 248.00,203.12 C248.00,200.92 247.55,198.84 247.00,198.50 C246.45,198.16 246.00,196.84 246.00,195.56 C246.00,193.13 243.78,190.55 242.66,191.68 C242.30,192.04 242.00,191.78 242.00,191.11 C242.00,190.43 241.55,190.16 241.00,190.50 C240.40,190.87 240.00,189.53 240.00,187.12 C240.00,184.92 239.55,182.84 239.00,182.50 C238.45,182.16 238.00,180.84 238.00,179.56 C238.00,177.00 235.78,174.59 234.50,175.76 C234.05,176.17 233.98,175.98 234.35,175.34 C234.71,174.69 234.45,173.94 233.76,173.66 C232.81,173.28 232.87,172.90 234.00,172.10 C235.05,171.37 205.41,171.04 134.75,171.02 C119.56,171.01 105.13,171.02 92.18,171.04 C105.25,171.02 119.73,171.00 134.93,171.00 L 238.53 171.00 L 264.35 222.76 ZM 227.00 271.33 C227.00,271.64 228.27,271.45 229.82,270.91 C232.23,270.07 232.58,269.49 232.21,266.98 C231.97,265.35 232.12,263.23 232.54,262.26 C232.96,261.29 233.35,260.05 233.40,259.50 C233.64,257.07 235.84,254.72 237.35,255.30 C239.58,256.16 241.13,253.12 239.78,250.53 C239.20,249.41 239.05,248.80 239.45,249.17 C239.84,249.53 241.05,248.95 242.12,247.88 C243.19,246.81 244.51,246.20 245.04,246.52 C245.57,246.85 246.00,246.68 246.00,246.15 C246.00,245.62 247.01,245.38 248.25,245.62 C248.91,245.75 249.37,245.84 249.63,245.87 L 246.43 250.88 C236.58,266.35 228.23,279.00 227.87,279.00 C227.52,279.00 221.47,268.65 214.44,256.00 L 201.64 233.00 L 167.16 232.99 C186.08,232.84 200.00,232.52 200.00,232.00 C200.00,231.45 201.33,231.00 202.96,231.00 C205.99,231.00 208.72,234.03 207.49,236.02 C207.15,236.56 207.39,237.00 208.01,237.00 C208.63,237.00 210.64,238.60 212.49,240.55 C215.81,244.08 216.56,247.67 214.61,250.82 C213.69,252.31 216.53,254.92 219.13,254.97 C221.33,255.01 222.60,256.90 222.85,260.50 C222.96,262.15 223.21,264.74 223.39,266.25 C223.57,267.76 223.32,269.00 222.83,269.00 C222.33,269.00 222.43,269.93 223.03,271.06 C223.92,272.72 224.43,272.89 225.57,271.94 C226.36,271.29 227.00,271.01 227.00,271.33 ZM 371.49 275.86 C371.46,275.56 370.75,274.80 369.64,273.93 C367.49,272.24 367.20,271.50 368.04,269.93 C368.61,268.87 368.74,268.00 368.34,268.00 C367.94,268.00 368.49,267.29 369.56,266.43 C370.63,265.56 370.87,265.18 370.10,265.58 C369.14,266.08 368.93,265.92 369.45,265.09 C369.86,264.41 370.78,264.08 371.48,264.35 C373.12,264.98 375.00,263.10 375.00,260.83 C375.00,259.86 375.96,257.36 377.14,255.28 C383.68,243.69 385.13,240.36 385.52,236.00 C385.64,234.62 385.80,233.16 385.87,232.75 C385.94,232.34 387.71,232.00 389.80,232.00 C391.89,232.00 394.14,231.46 394.80,230.80 C395.73,229.87 396.00,229.88 396.00,230.86 C396.00,231.55 396.42,231.86 396.93,231.54 C397.44,231.23 398.14,231.42 398.49,231.98 C398.91,232.66 421.62,233.00 465.51,233.00 L 395.11 233.00 L 389.66 242.75 C387.63,246.38 380.22,259.90 371.49,275.86 ZM 35.46 171.34 C34.50,171.36 34.00,171.38 34.00,171.41 C34.00,172.94 35.36,174.90 36.10,174.44 C36.60,174.13 37.00,174.61 37.00,175.50 C37.00,176.39 37.40,176.87 37.89,176.57 C38.39,176.26 38.77,178.58 38.75,181.71 C38.72,186.30 39.08,187.62 40.61,188.46 C41.65,189.03 42.83,189.95 43.23,190.50 C43.64,191.05 43.98,191.11 43.98,190.63 C43.99,190.15 44.70,190.34 45.56,191.05 C46.70,192.00 47.06,193.85 46.87,197.85 C46.66,202.42 46.95,203.54 48.56,204.43 C49.63,205.02 50.83,205.95 51.23,206.50 C51.64,207.05 51.98,207.11 51.98,206.63 C51.99,206.15 52.70,206.34 53.56,207.05 C54.71,208.00 55.06,209.85 54.87,213.93 C54.62,219.22 54.75,219.57 57.55,220.91 C59.17,221.68 60.65,222.69 60.84,223.16 C61.02,223.63 61.51,223.80 61.92,223.55 C62.33,223.30 62.71,223.63 62.77,224.29 C63.22,229.43 63.47,230.65 64.30,231.75 C64.77,232.37 84.90,232.78 109.52,232.97 L 60.50 232.96 L 45.44 202.45 C37.16,185.68 30.60,171.74 30.86,171.47 C30.91,171.43 32.51,171.38 35.46,171.34 ZM 370.59 277.50 C370.40,277.28 370.12,276.99 369.75,276.62 C368.79,275.65 368.00,274.57 368.00,274.23 C368.00,273.88 368.54,274.14 369.20,274.80 C369.86,275.46 370.82,276.00 371.33,276.00 C371.37,276.00 371.40,276.00 371.42,275.99 Z" fill="rgb(4,4,4)"/>
<path d="M 0.00 300.00 L 0.00 0.00 L 300.00 0.00 L 600.00 0.00 L 600.00 300.00 L 600.00 600.00 L 300.00 600.00 L 0.00 600.00 L 0.00 300.00 ZM 229.00 524.24 C229.00,523.83 235.41,513.70 243.25,501.74 C251.09,489.78 260.18,475.83 263.45,470.74 C281.02,443.48 295.30,422.00 295.86,422.01 C296.46,422.01 301.18,428.32 329.98,467.50 C336.04,475.75 346.49,489.92 353.19,499.00 C359.89,508.08 366.06,516.69 366.90,518.14 C368.61,521.13 363.78,529.17 423.49,424.00 C437.69,398.98 457.51,364.10 467.52,346.50 C477.53,328.90 487.86,310.67 490.48,306.00 C493.10,301.33 496.12,296.04 497.20,294.25 L 499.16 291.00 L 462.33 291.00 L 425.50 291.00 L 422.74 295.75 C421.23,298.36 411.70,313.55 401.58,329.50 C391.45,345.45 379.51,364.35 375.04,371.50 C370.56,378.65 366.08,385.58 365.08,386.90 L 363.26 389.30 L 348.13 369.18 C339.81,358.11 333.01,348.48 333.03,347.78 C333.04,347.07 334.75,343.35 336.82,339.50 C345.00,324.30 384.53,251.93 389.66,242.75 L 395.11 233.00 L 467.95 233.00 L 540.79 233.00 L 543.79 228.25 C545.44,225.64 549.25,219.23 552.25,214.00 C555.26,208.77 561.54,197.98 566.21,190.00 C570.88,182.02 575.24,174.49 575.89,173.25 L 577.07 171.00 L 472.75 171.00 L 368.43 171.00 L 350.54 201.25 C340.71,217.89 326.28,242.30 318.50,255.50 C310.71,268.70 297.82,290.52 289.87,304.00 C281.91,317.48 266.03,344.36 254.58,363.75 C243.13,383.14 233.48,399.00 233.13,399.00 C232.78,399.00 219.82,375.93 204.31,347.75 L 176.12 296.50 L 137.06 296.24 C115.58,296.09 98.00,296.17 98.00,296.41 C98.00,296.86 102.20,304.35 120.77,337.00 C126.56,347.17 134.99,362.02 139.52,370.00 C144.04,377.98 156.96,400.70 168.21,420.50 C179.46,440.30 197.41,471.91 208.09,490.74 C225.33,521.16 229.00,527.03 229.00,524.24 ZM 246.43 250.88 L 264.35 222.76 L 251.44 196.88 L 238.53 171.00 L 134.93 171.00 C77.95,171.00 31.12,171.21 30.86,171.47 C30.60,171.74 37.16,185.68 45.44,202.45 L 60.50 232.96 L 131.07 232.98 L 201.64 233.00 L 214.44 256.00 C221.47,268.65 227.52,279.00 227.87,279.00 C228.23,279.00 236.58,266.35 246.43,250.88 Z" fill="rgb(254,254,254)"/>
</g>
</svg>