<svg xmlns="http://www.w3.org/2000/svg" width="1200" height="800" viewBox="0 0 1200 800">
<g>
<path d="M 549.95 433.76 C540.90,447.66 531.19,462.62 528.37,467.01 C524.59,472.91 522.98,474.67 522.24,473.75 C521.69,473.06 508.09,449.33 492.01,421.00 C463.37,370.54 441.42,331.90 409.13,275.12 C400.26,259.52 393.00,246.57 393.00,246.36 C393.00,246.15 410.58,246.09 432.07,246.24 L 471.14 246.50 L 499.32 297.75 C514.82,325.94 527.79,349.00 528.15,349.00 C528.78,349.00 559.69,296.98 646.81,149.25 L 663.47 121.00 L 767.74 121.00 C825.08,121.00 872.00,121.18 872.00,121.40 C872.00,121.87 840.15,176.32 837.58,180.24 L 835.78 182.99 L 762.76 183.24 L 689.74 183.50 L 658.89 240.00 C641.92,271.08 628.03,297.00 628.02,297.60 C628.01,298.21 634.79,307.82 643.10,318.97 C655.67,335.84 658.42,339.00 659.50,337.86 C660.22,337.11 665.18,329.52 670.52,321.00 C682.93,301.22 696.27,280.03 709.86,258.50 L 720.59 241.50 L 757.40 241.24 L 794.20 240.98 L 791.71 245.24 C790.34,247.58 782.71,260.98 774.76,275.00 C766.80,289.02 753.77,311.98 745.81,326.00 C737.84,340.02 723.54,365.23 714.02,382.00 C686.76,430.08 664.83,468.45 664.31,469.00 C663.60,469.74 660.72,465.96 624.83,417.20 C606.73,392.61 591.56,372.37 591.12,372.22 C590.33,371.94 585.93,378.52 549.95,433.76 ZM 527.66 222.75 C525.47,226.19 523.36,229.00 522.96,229.00 C522.57,229.00 516.52,218.65 509.52,206.00 L 496.80 183.00 L 356.01 183.00 L 324.99 121.00 L 533.53 121.00 L 546.40 146.79 L 559.26 172.59 L 557.62 175.54 C556.72,177.17 552.19,184.35 547.56,191.50 C542.93,198.65 537.45,207.20 535.39,210.50 C533.32,213.80 529.84,219.31 527.66,222.75 ZM 702.17 691.50 L 701.36 694.50 L 689.17 694.78 C677.31,695.05 676.96,695.00 676.03,692.78 C675.50,691.53 671.27,676.10 666.62,658.50 C650.34,596.87 642.08,565.48 641.44,562.75 L 640.78 560.00 L 654.64 560.01 L 668.50 560.01 L 679.38 606.76 C685.37,632.47 690.61,653.88 691.03,654.34 C691.44,654.81 693.66,647.38 695.94,637.84 C705.92,596.23 709.38,581.82 711.92,571.50 L 714.62 560.50 L 725.22 560.22 L 735.82 559.93 L 737.99 569.22 C739.19,574.32 743.02,590.20 746.50,604.50 C749.98,618.80 754.04,635.67 755.53,642.00 C757.01,648.33 758.57,653.87 758.98,654.31 C759.08,654.42 759.16,654.53 759.26,654.54 C760.08,654.64 761.77,647.36 780.52,566.54 L 781.52 562.25 C782.03,560.05 782.34,560.00 795.97,560.00 L 809.90 560.00 L 808.99 562.75 C808.19,565.18 802.91,584.67 782.38,661.00 C779.34,672.28 775.97,684.54 774.89,688.25 L 772.92 695.00 L 749.08 695.00 L 748.07 691.25 C746.40,685.04 727.26,607.75 726.52,604.25 C726.15,602.46 725.52,601.00 725.14,601.00 C724.75,601.00 719.60,620.69 713.71,644.75 C707.81,668.81 702.62,689.85 702.17,691.50 ZM 587.92 696.88 C558.15,701.94 531.51,684.09 525.40,655.00 C519.57,627.21 537.67,598.76 564.80,593.11 C571.62,591.68 584.43,591.69 591.20,593.12 C603.79,595.78 616.11,604.26 623.00,615.00 C634.25,632.53 634.25,656.47 623.00,674.00 C615.66,685.44 601.70,694.54 587.92,696.88 ZM 349.79 696.42 C331.32,700.21 314.34,695.69 301.11,683.44 C294.51,677.33 290.06,670.39 286.97,661.40 C276.91,632.17 295.16,599.23 324.80,593.10 C331.61,591.69 344.42,591.69 351.20,593.11 C363.92,595.76 376.71,604.79 383.37,615.83 C402.60,647.67 385.33,689.11 349.79,696.42 ZM 893.39 693.42 C892.89,694.73 890.86,695.00 881.39,695.00 L 870.00 695.00 L 870.00 560.00 L 894.00 560.00 L 894.00 595.56 C894.00,618.45 894.35,630.90 894.98,630.51 C895.51,630.18 901.92,623.29 909.21,615.21 C916.51,607.12 923.62,599.25 925.02,597.72 L 927.56 594.94 L 955.86 595.50 L 948.18 603.55 C940.34,611.77 929.60,623.13 920.30,633.05 L 915.09 638.59 L 927.73 655.55 C934.68,664.87 943.88,677.16 948.18,682.86 C952.47,688.56 955.73,693.62 955.43,694.11 C955.13,694.60 949.28,695.00 942.42,695.00 L 929.96 695.00 L 922.73 685.15 C918.75,679.74 911.00,668.94 905.50,661.17 C900.00,653.40 895.16,647.03 894.75,647.02 C894.34,647.01 894.00,657.09 894.00,669.42 C894.00,681.75 893.73,692.55 893.39,693.42 ZM 469.48 696.49 C460.24,698.44 453.07,698.30 444.19,695.98 C434.57,693.46 427.94,689.77 420.42,682.75 C394.97,659.03 400.45,614.27 430.78,598.22 C439.54,593.58 446.20,592.00 456.95,592.00 C473.26,592.00 484.03,596.15 495.13,606.72 C500.85,612.16 507.74,623.87 508.25,629.00 L 508.50 631.50 L 485.07 632.06 L 483.10 628.19 C480.91,623.91 475.73,618.95 470.74,616.36 C466.52,614.17 454.26,613.39 448.66,614.96 C441.76,616.89 434.98,622.66 431.53,629.53 C428.91,634.76 428.54,636.55 428.54,644.00 C428.54,651.07 428.98,653.42 431.14,658.00 C436.38,669.06 445.82,675.16 457.84,675.23 C468.51,675.30 477.52,670.32 483.15,661.25 L 485.16 658.00 L 509.04 658.00 L 508.38 660.75 C506.80,667.27 501.43,675.79 494.61,682.58 C486.57,690.58 479.88,694.28 469.48,696.49 ZM 279.06 671.00 L 278.50 694.50 L 243.43 694.76 C224.14,694.91 208.05,694.72 207.68,694.35 C207.31,693.97 207.00,663.59 207.00,626.83 L 207.00 560.00 L 235.00 560.00 L 235.00 671.00 ZM 569.36 673.91 C571.09,674.41 575.24,674.86 578.59,674.91 C583.50,674.98 585.87,674.41 590.80,671.94 C594.17,670.26 598.08,667.50 599.51,665.81 C614.01,648.58 607.31,621.22 587.16,615.36 C564.52,608.78 544.12,627.99 548.96,651.32 C551.05,661.35 559.91,671.17 569.36,673.91 ZM 325.50 672.12 C334.06,676.23 342.35,676.17 350.83,671.93 C362.18,666.26 367.51,656.41 366.77,642.50 C366.44,636.41 365.71,633.27 363.71,629.36 C352.78,608.01 320.99,609.30 310.81,631.50 C309.01,635.43 308.53,638.22 308.56,644.50 C308.63,657.92 313.94,666.57 325.50,672.12 ZM 846.02 595.00 L 845.50 694.50 L 822.00 695.06 L 822.00 595.00 ZM 997.02 595.00 L 996.50 694.50 L 985.45 694.78 C979.37,694.94 974.08,694.75 973.70,694.36 C973.31,693.98 973.00,671.47 973.00,644.33 L 973.00 595.00 ZM 846.07 560.00 L 845.50 580.50 L 822.00 581.06 L 822.00 560.00 ZM 997.07 560.00 L 996.50 580.50 L 985.45 580.78 C979.37,580.94 974.08,580.75 973.70,580.36 C973.31,579.98 973.00,575.24 973.00,569.83 L 973.00 560.00 Z" fill="rgb(1,1,1)"/>
<path d="M 0.00 400.00 L 0.00 0.00 L 600.00 0.00 L 1200.00 0.00 L 1200.00 400.00 L 1200.00 800.00 L 600.00 800.00 L 0.00 800.00 L 0.00 400.00 ZM 349.79 696.42 C385.33,689.11 402.60,647.67 383.37,615.83 C376.71,604.79 363.92,595.76 351.20,593.11 C344.42,591.69 331.61,591.69 324.80,593.10 C295.16,599.23 276.91,632.17 286.97,661.40 C290.06,670.39 294.51,677.33 301.11,683.44 C314.34,695.69 331.32,700.21 349.79,696.42 ZM 469.48 696.49 C479.88,694.28 486.57,690.58 494.61,682.58 C501.43,675.79 506.80,667.27 508.38,660.75 L 509.04 658.00 L 497.10 658.00 L 485.16 658.00 L 483.15 661.25 C477.52,670.32 468.51,675.30 457.84,675.23 C445.82,675.16 436.38,669.06 431.14,658.00 C428.98,653.42 428.54,651.07 428.54,644.00 C428.54,636.55 428.91,634.76 431.53,629.53 C434.98,622.66 441.76,616.89 448.66,614.96 C454.26,613.39 466.52,614.17 470.74,616.36 C475.73,618.95 480.91,623.91 483.10,628.19 L 485.07 632.06 L 496.79 631.78 L 508.50 631.50 L 508.25 629.00 C507.74,623.87 500.85,612.16 495.13,606.72 C484.03,596.15 473.26,592.00 456.95,592.00 C446.20,592.00 439.54,593.58 430.78,598.22 C400.45,614.27 394.97,659.03 420.42,682.75 C427.94,689.77 434.57,693.46 444.19,695.98 C453.07,698.30 460.24,698.44 469.48,696.49 ZM 587.92 696.88 C601.70,694.54 615.66,685.44 623.00,674.00 C634.25,656.47 634.25,632.53 623.00,615.00 C616.11,604.26 603.79,595.78 591.20,593.12 C584.43,591.69 571.62,591.68 564.80,593.11 C537.67,598.76 519.57,627.21 525.40,655.00 C531.51,684.09 558.15,701.94 587.92,696.88 ZM 278.78 682.75 L 279.06 671.00 L 257.03 671.00 L 235.00 671.00 L 235.00 615.50 L 235.00 560.00 L 221.00 560.00 L 207.00 560.00 L 207.00 626.83 C207.00,663.59 207.31,693.97 207.68,694.35 C208.05,694.72 224.14,694.91 243.43,694.76 L 278.50 694.50 L 278.78 682.75 ZM 702.17 691.50 C702.62,689.85 707.81,668.81 713.71,644.75 C719.60,620.69 724.75,601.00 725.14,601.00 C725.52,601.00 726.15,602.46 726.52,604.25 C727.26,607.75 746.40,685.04 748.07,691.25 L 749.08 695.00 L 761.00 695.00 L 772.92 695.00 L 774.89 688.25 C775.97,684.54 779.34,672.28 782.38,661.00 C802.91,584.67 808.19,565.18 808.99,562.75 L 809.90 560.00 L 795.97 560.00 C782.34,560.00 782.03,560.05 781.52,562.25 C759.58,656.82 759.94,655.35 758.98,654.31 C758.57,653.87 757.01,648.33 755.53,642.00 C754.04,635.67 749.98,618.80 746.50,604.50 C743.02,590.20 739.19,574.32 737.99,569.22 L 735.82 559.93 L 725.22 560.22 L 714.62 560.50 L 711.92 571.50 C709.38,581.82 705.92,596.23 695.94,637.84 C693.66,647.38 691.44,654.81 691.03,654.34 C690.61,653.88 685.37,632.47 679.38,606.76 L 668.50 560.01 L 654.64 560.01 L 640.78 560.00 L 641.44 562.75 C642.08,565.48 650.34,596.87 666.62,658.50 C671.27,676.10 675.50,691.53 676.03,692.78 C676.96,695.00 677.31,695.05 689.17,694.78 L 701.36 694.50 L 702.17 691.50 ZM 845.76 644.75 L 846.02 595.00 L 834.01 595.00 L 822.00 595.00 L 822.00 645.03 L 822.00 695.06 L 833.75 694.78 L 845.50 694.50 L 845.76 644.75 ZM 893.39 693.42 C893.73,692.55 894.00,681.75 894.00,669.42 C894.00,657.09 894.34,647.01 894.75,647.02 C895.16,647.03 900.00,653.40 905.50,661.17 C911.00,668.94 918.75,679.74 922.73,685.15 L 929.96 695.00 L 942.42 695.00 C949.28,695.00 955.13,694.60 955.43,694.11 C955.73,693.62 952.47,688.56 948.18,682.86 C943.88,677.16 934.68,664.87 927.73,655.55 L 915.09 638.59 L 920.30 633.05 C929.60,623.13 940.34,611.77 948.18,603.55 L 955.86 595.50 L 941.71 595.22 L 927.56 594.94 L 925.02 597.72 C923.62,599.25 916.51,607.12 909.21,615.21 C901.92,623.29 895.51,630.18 894.98,630.51 C894.35,630.90 894.00,618.45 894.00,595.56 L 894.00 560.00 L 882.00 560.00 L 870.00 560.00 L 870.00 627.50 L 870.00 695.00 L 881.39 695.00 C890.86,695.00 892.89,694.73 893.39,693.42 ZM 996.76 644.75 L 997.02 595.00 L 985.01 595.00 L 973.00 595.00 L 973.00 644.33 C973.00,671.47 973.31,693.98 973.70,694.36 C974.08,694.75 979.37,694.94 985.45,694.78 L 996.50 694.50 L 996.76 644.75 ZM 845.78 570.25 L 846.07 560.00 L 834.03 560.00 L 822.00 560.00 L 822.00 570.53 L 822.00 581.06 L 833.75 580.78 L 845.50 580.50 L 845.78 570.25 ZM 996.78 570.25 L 997.07 560.00 L 985.03 560.00 L 973.00 560.00 L 973.00 569.83 C973.00,575.24 973.31,579.98 973.70,580.36 C974.08,580.75 979.37,580.94 985.45,580.78 L 996.50 580.50 L 996.78 570.25 ZM 549.95 433.76 C585.93,378.52 590.33,371.94 591.12,372.22 C591.56,372.37 606.73,392.61 624.83,417.20 C660.72,465.96 663.60,469.74 664.31,469.00 C664.83,468.45 686.76,430.08 714.02,382.00 C723.54,365.23 737.84,340.02 745.81,326.00 C753.77,311.98 766.80,289.02 774.76,275.00 C782.71,260.98 790.34,247.58 791.71,245.24 L 794.20 240.98 L 757.40 241.24 L 720.59 241.50 L 709.86 258.50 C696.27,280.03 682.93,301.22 670.52,321.00 C665.18,329.52 660.22,337.11 659.50,337.86 C658.42,339.00 655.67,335.84 643.10,318.97 C634.79,307.82 628.01,298.21 628.02,297.60 C628.03,297.00 641.92,271.08 658.89,240.00 L 689.74 183.50 L 762.76 183.24 L 835.78 182.99 L 837.58 180.24 C840.15,176.32 872.00,121.87 872.00,121.40 C872.00,121.18 825.08,121.00 767.74,121.00 L 663.47 121.00 L 646.81 149.25 C559.69,296.98 528.78,349.00 528.15,349.00 C527.79,349.00 514.82,325.94 499.32,297.75 L 471.14 246.50 L 432.07 246.24 C410.58,246.09 393.00,246.15 393.00,246.36 C393.00,246.57 400.26,259.52 409.13,275.12 C441.42,331.90 463.37,370.54 492.01,421.00 C508.09,449.33 521.69,473.06 522.24,473.75 C522.98,474.67 524.59,472.91 528.37,467.01 C531.19,462.62 540.90,447.66 549.95,433.76 ZM 527.66 222.75 C529.84,219.31 533.32,213.80 535.39,210.50 C537.45,207.20 542.93,198.65 547.56,191.50 C552.19,184.35 556.72,177.17 557.62,175.54 L 559.26 172.59 L 546.40 146.79 L 533.53 121.00 L 429.26 121.00 L 324.99 121.00 L 340.50 152.00 L 356.01 183.00 L 426.40 183.00 L 496.80 183.00 L 509.52 206.00 C516.52,218.65 522.57,229.00 522.96,229.00 C523.36,229.00 525.47,226.19 527.66,222.75 ZM 325.50 672.12 C313.94,666.57 308.63,657.92 308.56,644.50 C308.53,638.22 309.01,635.43 310.81,631.50 C320.99,609.30 352.78,608.01 363.71,629.36 C365.71,633.27 366.44,636.41 366.77,642.50 C367.51,656.41 362.18,666.26 350.83,671.93 C342.35,676.17 334.06,676.23 325.50,672.12 ZM 569.36 673.91 C559.91,671.17 551.05,661.35 548.96,651.32 C544.12,627.99 564.52,608.78 587.16,615.36 C607.31,621.22 614.01,648.58 599.51,665.81 C598.08,667.50 594.17,670.26 590.80,671.94 C585.87,674.41 583.50,674.98 578.59,674.91 C575.24,674.86 571.09,674.41 569.36,673.91 Z" fill="rgb(254,254,254)"/>
</g>
</svg>